<svg width="140" height="47" viewBox="0 0 140 47" fill="none" xmlns="http://www.w3.org/2000/svg">
<g id="logo 1">
<g id="Group">
<g id="Group_2">
<g id="Group_3">
<path id="Vector" d="M6.2231 44.0762H2.70059V1.87558H9.31507C9.98043 1.91465 10.5284 2.22725 10.9589 2.7743C11.3894 3.36042 11.5851 4.06376 11.5851 4.84526C11.6243 10.5892 11.6243 16.3332 11.5851 21.999C11.5851 22.8587 11.3112 23.562 10.8024 24.1481C10.2544 24.7343 9.62818 25.0469 8.92368 25.0859C8.49316 25.125 8.06263 25.125 7.6321 25.125C7.20157 25.125 6.7319 25.0859 6.26224 25.0859V44.0762H6.2231ZM7.78865 6.17379H6.2231V21.0222H7.78865V6.17379Z" fill="black"/>
<path id="Vector_2" d="M22.6615 1.87558V38.5276V44.0762H19.139V21.0222H17.5734V44.0762H14.0509V42.4351V5.7049C14.0509 3.12597 15.1076 1.87558 17.182 1.87558H22.6615ZM17.5734 17.1147H19.139V6.17379H17.5734V17.1147Z" fill="black"/>
<path id="Vector_3" d="M33.9726 16.3723C33.9726 17.2319 33.7378 17.818 33.3464 18.1306C32.9159 18.4432 32.4853 18.7168 32.0939 18.9903C33.4247 19.8499 34.09 21.2175 34.0509 23.1713V23.9528V42.4742V44.0762H30.5284V23.9137V21.0612H28.9628V44.1153H25.4403V30.6345V1.87558H28.8454H31.3503C32.2896 1.87558 32.9941 2.1491 33.4247 2.69615C33.8552 3.24319 34.09 3.98561 34.09 4.9234L33.9726 16.3723ZM30.4892 16.724V6.17379H28.9237V16.724H30.4892Z" fill="black"/>
<path id="Vector_4" d="M42.6223 44.0762H39.0998V6.17379H36.7515V1.87558H44.9707V6.17379H42.6223V44.0762Z" fill="black"/>
<path id="Vector_5" d="M52.681 1.87558H56.1252C56.0861 2.22725 56.047 2.65707 55.9687 3.16504C55.8904 3.67302 55.8121 4.22006 55.7339 4.72803C55.6556 5.27508 55.5773 5.78305 55.499 6.29102C55.4207 6.79899 55.3425 7.22881 55.3033 7.54141L53.3855 20.6705L51.4677 34.9718L50.2544 44.0762H46.9276C47.1233 42.7868 47.2798 41.5364 47.4364 40.286C47.593 39.0356 47.7495 37.7852 47.9061 36.5348L49.9413 21.1003L46.9667 1.87558H50.2544L51.5851 11.3317L52.681 1.87558Z" fill="black"/>
</g>
<g id="Group_4">
<path id="Vector_6" d="M106.027 44.0762H102.505V6.17379H100.157V1.87558H108.376V6.17379H106.027V44.0762Z" fill="black"/>
<path id="Vector_7" d="M110.724 1.87558H114.247V44.0762H110.724V1.87558Z" fill="black"/>
<path id="Vector_8" d="M115.812 44.0762V1.87558H126.771C127.75 1.91465 128.454 2.22725 128.885 2.81337C129.315 3.39949 129.511 4.37636 129.511 5.66582C129.511 11.8005 129.511 18.0134 129.511 24.2654C129.511 30.5564 129.511 37.16 129.472 44.0372H125.988V6.13472H124.423V44.0372H120.9V6.13472H119.335V44.0372H115.812V44.0762Z" fill="black"/>
<path id="Vector_9" d="M135.773 21.0222V25.1641V40.1688H138.121V44.0762H132.25V1.87558H138.121V6.17379H135.773V16.724H138.121V21.0222H135.773Z" fill="black"/>
</g>
<g id="Group_5">
<path id="Vector_10" d="M78.2388 22.9759H77.8474V23.3667H78.2388V22.9759Z" fill="black"/>
<path id="Vector_11" d="M98.865 25.4767L85.2446 23.0541L98.7867 20.6705L98.3562 18.2479L84.7358 20.6314L96.6341 13.7543L95.3816 11.6052L83.4051 18.5214L92.2505 8.01031L90.3327 6.40824L81.4482 16.9975L86.1448 4.10284L83.7965 3.24319L78.9824 16.216V2.65707H76.6341V16.2941L71.8982 3.39949L69.5499 4.25914L74.2857 17.2319L65.4403 6.72084L63.5225 8.3229L72.4071 18.9121L60.5088 12.035L59.2564 14.1841L71.2329 21.1003L57.6908 18.7168L57.2603 21.1394L70.8806 23.523L57.3386 25.9065L57.7691 28.3291L71.3894 25.9456L59.4912 32.8227L60.7436 34.9718L72.7202 28.0556L63.8748 38.5667L65.7926 40.1688L74.6771 29.6186L69.9804 42.5133L72.3288 43.3729L77.0646 30.4001V44.1153H79.4129V30.2829L84.2662 43.1775L86.6145 42.3179L81.8787 29.3451L90.7241 39.8562L92.6419 38.2541L83.7573 27.6649L95.6556 34.542L96.908 32.3929L84.9315 25.4767L98.4736 27.8602L98.865 25.4767ZM77.8474 23.3667V22.9759H78.2388V23.3667H77.8474Z" fill="black"/>
<path id="Vector_12" d="M78.2388 22.9759H77.8474V23.3667H78.2388V22.9759Z" fill="black"/>
<path id="Vector_13" d="M78.2388 22.9759H77.8474V23.3667H78.2388V22.9759Z" fill="black"/>
<path id="Vector_14" d="M78.2388 22.9759H77.8474V23.3667H78.2388V22.9759Z" fill="black"/>
<path id="Vector_15" d="M78.2388 22.9759H77.8474V23.3667H78.2388V22.9759Z" fill="black"/>
<path id="Vector_16" d="M78.2388 22.9759H77.8474V23.3667H78.2388V22.9759Z" fill="black"/>
<path id="Vector_17" d="M78.2388 22.9759H77.8474V23.3667H78.2388V22.9759Z" fill="black"/>
<path id="Vector_18" d="M78.2388 22.9759H77.8474V23.3667H78.2388V22.9759Z" fill="black"/>
<path id="Vector_19" d="M78.2388 22.9759H77.8474V23.3667H78.2388V22.9759Z" fill="black"/>
<path id="Vector_20" d="M78.2388 22.9759H77.8474V23.3667H78.2388V22.9759Z" fill="black"/>
<path id="Vector_21" d="M78.2388 22.9759H77.8474V23.3667H78.2388V22.9759Z" fill="black"/>
<path id="Vector_22" d="M78.2388 22.9759H77.8474V23.3667H78.2388V22.9759Z" fill="black"/>
<path id="Vector_23" d="M78.2388 22.9759H77.8474V23.3667H78.2388V22.9759Z" fill="black"/>
<path id="Vector_24" d="M78.2388 22.9759H77.8474V23.3667H78.2388V22.9759Z" fill="black"/>
<path id="Vector_25" d="M78.2388 22.9759H77.8474V23.3667H78.2388V22.9759Z" fill="black"/>
</g>
</g>
<g id="Group_6">
<g id="Group_7">
<path id="Vector_26" d="M6.2231 44.0762H2.70059V1.87558H9.31507C9.98043 1.91465 10.5284 2.22725 10.9589 2.7743C11.3894 3.36042 11.5851 4.06376 11.5851 4.84526C11.6243 10.5892 11.6243 16.3332 11.5851 21.999C11.5851 22.8587 11.3112 23.562 10.8024 24.1481C10.2544 24.7343 9.62818 25.0469 8.92368 25.0859C8.49316 25.125 8.06263 25.125 7.6321 25.125C7.20157 25.125 6.7319 25.0859 6.26224 25.0859V44.0762H6.2231ZM7.78865 6.17379H6.2231V21.0222H7.78865V6.17379Z" fill="url(#paint0_linear_4_6)"/>
<path id="Vector_27" d="M22.6615 1.87558V38.5276V44.0762H19.139V21.0222H17.5734V44.0762H14.0509V42.4351V5.7049C14.0509 3.12597 15.1076 1.87558 17.182 1.87558H22.6615ZM17.5734 17.1147H19.139V6.17379H17.5734V17.1147Z" fill="url(#paint1_linear_4_6)"/>
<path id="Vector_28" d="M33.9726 16.3723C33.9726 17.2319 33.7378 17.818 33.3464 18.1306C32.9159 18.4432 32.4853 18.7168 32.0939 18.9903C33.4247 19.8499 34.09 21.2175 34.0509 23.1713V23.9528V42.4742V44.0762H30.5284V23.9137V21.0612H28.9628V44.1153H25.4403V30.6345V1.87558H28.8454H31.3503C32.2896 1.87558 32.9941 2.1491 33.4247 2.69615C33.8552 3.24319 34.09 3.98561 34.09 4.9234L33.9726 16.3723ZM30.4892 16.724V6.17379H28.9237V16.724H30.4892Z" fill="url(#paint2_linear_4_6)"/>
<path id="Vector_29" d="M42.6223 44.0762H39.0998V6.17379H36.7515V1.87558H44.9707V6.17379H42.6223V44.0762Z" fill="url(#paint3_linear_4_6)"/>
<path id="Vector_30" d="M52.681 1.87558H56.1252C56.0861 2.22725 56.047 2.65707 55.9687 3.16504C55.8904 3.67302 55.8121 4.22006 55.7339 4.72803C55.6556 5.27508 55.5773 5.78305 55.499 6.29102C55.4207 6.79899 55.3425 7.22881 55.3033 7.54141L53.3855 20.6705L51.4677 34.9718L50.2544 44.0762H46.9276C47.1233 42.7868 47.2798 41.5364 47.4364 40.286C47.593 39.0356 47.7495 37.7852 47.9061 36.5348L49.9413 21.1003L46.9667 1.87558H50.2544L51.5851 11.3317L52.681 1.87558Z" fill="url(#paint4_linear_4_6)"/>
</g>
<g id="Group_8">
<path id="Vector_31" d="M106.027 44.0762H102.505V6.17379H100.157V1.87558H108.376V6.17379H106.027V44.0762Z" fill="url(#paint5_linear_4_6)"/>
<path id="Vector_32" d="M110.724 1.87558H114.247V44.0762H110.724V1.87558Z" fill="url(#paint6_linear_4_6)"/>
<path id="Vector_33" d="M115.812 44.0762V1.87558H126.771C127.75 1.91465 128.454 2.22725 128.885 2.81337C129.315 3.39949 129.511 4.37636 129.511 5.66582C129.511 11.8005 129.511 18.0134 129.511 24.2654C129.511 30.5564 129.511 37.16 129.472 44.0372H125.988V6.13472H124.423V44.0372H120.9V6.13472H119.335V44.0372H115.812V44.0762Z" fill="url(#paint7_linear_4_6)"/>
<path id="Vector_34" d="M135.773 21.0222V25.1641V40.1688H138.121V44.0762H132.25V1.87558H138.121V6.17379H135.773V16.724H138.121V21.0222H135.773Z" fill="url(#paint8_linear_4_6)"/>
</g>
<g id="Group_9">
<path id="Vector_35" d="M78.2388 22.9759H77.8474V23.3667H78.2388V22.9759Z" fill="url(#paint9_linear_4_6)"/>
<path id="Vector_36" d="M98.865 25.4767L85.2446 23.0541L98.7867 20.6705L98.3562 18.2479L84.7358 20.6314L96.6341 13.7543L95.3816 11.6052L83.4051 18.5214L92.2505 8.01031L90.3327 6.40824L81.4482 16.9975L86.1448 4.10284L83.7965 3.24319L78.9824 16.216V2.65707H76.6341V16.2941L71.8982 3.39949L69.5499 4.25914L74.2857 17.2319L65.4403 6.72084L63.5225 8.3229L72.4071 18.9121L60.5088 12.035L59.2564 14.1841L71.2329 21.1003L57.6908 18.7168L57.2603 21.1394L70.8806 23.523L57.3386 25.9065L57.7691 28.3291L71.3894 25.9456L59.4912 32.8227L60.7436 34.9718L72.7202 28.0556L63.8748 38.5667L65.7926 40.1688L74.6771 29.6186L69.9804 42.5133L72.3288 43.3729L77.0646 30.4001V44.1153H79.4129V30.2829L84.2662 43.1775L86.6145 42.3179L81.8787 29.3451L90.7241 39.8562L92.6419 38.2541L83.7573 27.6649L95.6556 34.542L96.908 32.3929L84.9315 25.4767L98.4736 27.8602L98.865 25.4767ZM77.8474 23.3667V22.9759H78.2388V23.3667H77.8474Z" fill="url(#paint10_linear_4_6)"/>
<path id="Vector_37" d="M78.2388 22.9759H77.8474V23.3667H78.2388V22.9759Z" fill="url(#paint11_linear_4_6)"/>
<path id="Vector_38" d="M78.2388 22.9759H77.8474V23.3667H78.2388V22.9759Z" fill="url(#paint12_linear_4_6)"/>
<path id="Vector_39" d="M78.2388 22.9759H77.8474V23.3667H78.2388V22.9759Z" fill="url(#paint13_linear_4_6)"/>
<path id="Vector_40" d="M78.2388 22.9759H77.8474V23.3667H78.2388V22.9759Z" fill="url(#paint14_linear_4_6)"/>
<path id="Vector_41" d="M78.2388 22.9759H77.8474V23.3667H78.2388V22.9759Z" fill="url(#paint15_linear_4_6)"/>
<path id="Vector_42" d="M78.2388 22.9759H77.8474V23.3667H78.2388V22.9759Z" fill="url(#paint16_linear_4_6)"/>
<path id="Vector_43" d="M78.2388 22.9759H77.8474V23.3667H78.2388V22.9759Z" fill="url(#paint17_linear_4_6)"/>
<path id="Vector_44" d="M78.2388 22.9759H77.8474V23.3667H78.2388V22.9759Z" fill="url(#paint18_linear_4_6)"/>
<path id="Vector_45" d="M78.2388 22.9759H77.8474V23.3667H78.2388V22.9759Z" fill="url(#paint19_linear_4_6)"/>
<path id="Vector_46" d="M78.2388 22.9759H77.8474V23.3667H78.2388V22.9759Z" fill="url(#paint20_linear_4_6)"/>
<path id="Vector_47" d="M78.2388 22.9759H77.8474V23.3667H78.2388V22.9759Z" fill="url(#paint21_linear_4_6)"/>
<path id="Vector_48" d="M78.2388 22.9759H77.8474V23.3667H78.2388V22.9759Z" fill="url(#paint22_linear_4_6)"/>
<path id="Vector_49" d="M78.2388 22.9759H77.8474V23.3667H78.2388V22.9759Z" fill="url(#paint23_linear_4_6)"/>
<path id="Vector_50" d="M78.2388 22.9759H77.8474V23.3667H78.2388V22.9759Z" fill="url(#paint24_linear_4_6)"/>
</g>
</g>
</g>
</g>
<defs>
<linearGradient id="paint0_linear_4_6" x1="2.69809" y1="22.9874" x2="138.119" y2="22.9874" gradientUnits="userSpaceOnUse">
<stop offset="2.77045e-07" stop-color="#C24599"/>
<stop offset="0.5279" stop-color="#EE2447"/>
<stop offset="1" stop-color="#2482C5"/>
</linearGradient>
<linearGradient id="paint1_linear_4_6" x1="2.69809" y1="22.9874" x2="138.119" y2="22.9874" gradientUnits="userSpaceOnUse">
<stop offset="2.77045e-07" stop-color="#C24599"/>
<stop offset="0.5279" stop-color="#EE2447"/>
<stop offset="1" stop-color="#2482C5"/>
</linearGradient>
<linearGradient id="paint2_linear_4_6" x1="2.69808" y1="22.9874" x2="138.119" y2="22.9874" gradientUnits="userSpaceOnUse">
<stop offset="2.77045e-07" stop-color="#C24599"/>
<stop offset="0.5279" stop-color="#EE2447"/>
<stop offset="1" stop-color="#2482C5"/>
</linearGradient>
<linearGradient id="paint3_linear_4_6" x1="2.69808" y1="22.9874" x2="138.119" y2="22.9874" gradientUnits="userSpaceOnUse">
<stop offset="2.77045e-07" stop-color="#C24599"/>
<stop offset="0.5279" stop-color="#EE2447"/>
<stop offset="1" stop-color="#2482C5"/>
</linearGradient>
<linearGradient id="paint4_linear_4_6" x1="2.6981" y1="22.9874" x2="138.119" y2="22.9874" gradientUnits="userSpaceOnUse">
<stop offset="2.77045e-07" stop-color="#C24599"/>
<stop offset="0.5279" stop-color="#EE2447"/>
<stop offset="1" stop-color="#2482C5"/>
</linearGradient>
<linearGradient id="paint5_linear_4_6" x1="2.69809" y1="22.9874" x2="138.119" y2="22.9874" gradientUnits="userSpaceOnUse">
<stop offset="2.77045e-07" stop-color="#C24599"/>
<stop offset="0.5279" stop-color="#EE2447"/>
<stop offset="1" stop-color="#2482C5"/>
</linearGradient>
<linearGradient id="paint6_linear_4_6" x1="2.69808" y1="22.9874" x2="138.119" y2="22.9874" gradientUnits="userSpaceOnUse">
<stop offset="2.77045e-07" stop-color="#C24599"/>
<stop offset="0.5279" stop-color="#EE2447"/>
<stop offset="1" stop-color="#2482C5"/>
</linearGradient>
<linearGradient id="paint7_linear_4_6" x1="2.69809" y1="22.9874" x2="138.119" y2="22.9874" gradientUnits="userSpaceOnUse">
<stop offset="2.77045e-07" stop-color="#C24599"/>
<stop offset="0.5279" stop-color="#EE2447"/>
<stop offset="1" stop-color="#2482C5"/>
</linearGradient>
<linearGradient id="paint8_linear_4_6" x1="2.6981" y1="22.9874" x2="138.119" y2="22.9874" gradientUnits="userSpaceOnUse">
<stop offset="2.77045e-07" stop-color="#C24599"/>
<stop offset="0.5279" stop-color="#EE2447"/>
<stop offset="1" stop-color="#2482C5"/>
</linearGradient>
<linearGradient id="paint9_linear_4_6" x1="2.69809" y1="22.9874" x2="138.119" y2="22.9874" gradientUnits="userSpaceOnUse">
<stop offset="2.77045e-07" stop-color="#C24599"/>
<stop offset="0.5279" stop-color="#EE2447"/>
<stop offset="1" stop-color="#2482C5"/>
</linearGradient>
<linearGradient id="paint10_linear_4_6" x1="2.69809" y1="22.9874" x2="138.119" y2="22.9874" gradientUnits="userSpaceOnUse">
<stop offset="2.77045e-07" stop-color="#C24599"/>
<stop offset="0.5279" stop-color="#EE2447"/>
<stop offset="1" stop-color="#2482C5"/>
</linearGradient>
<linearGradient id="paint11_linear_4_6" x1="2.69809" y1="22.9874" x2="138.119" y2="22.9874" gradientUnits="userSpaceOnUse">
<stop offset="2.77045e-07" stop-color="#C24599"/>
<stop offset="0.5279" stop-color="#EE2447"/>
<stop offset="1" stop-color="#2482C5"/>
</linearGradient>
<linearGradient id="paint12_linear_4_6" x1="2.69809" y1="22.9874" x2="138.119" y2="22.9874" gradientUnits="userSpaceOnUse">
<stop offset="2.77045e-07" stop-color="#C24599"/>
<stop offset="0.5279" stop-color="#EE2447"/>
<stop offset="1" stop-color="#2482C5"/>
</linearGradient>
<linearGradient id="paint13_linear_4_6" x1="2.69809" y1="22.9874" x2="138.119" y2="22.9874" gradientUnits="userSpaceOnUse">
<stop offset="2.77045e-07" stop-color="#C24599"/>
<stop offset="0.5279" stop-color="#EE2447"/>
<stop offset="1" stop-color="#2482C5"/>
</linearGradient>
<linearGradient id="paint14_linear_4_6" x1="2.69809" y1="22.9874" x2="138.119" y2="22.9874" gradientUnits="userSpaceOnUse">
<stop offset="2.77045e-07" stop-color="#C24599"/>
<stop offset="0.5279" stop-color="#EE2447"/>
<stop offset="1" stop-color="#2482C5"/>
</linearGradient>
<linearGradient id="paint15_linear_4_6" x1="2.69809" y1="22.9874" x2="138.119" y2="22.9874" gradientUnits="userSpaceOnUse">
<stop offset="2.77045e-07" stop-color="#C24599"/>
<stop offset="0.5279" stop-color="#EE2447"/>
<stop offset="1" stop-color="#2482C5"/>
</linearGradient>
<linearGradient id="paint16_linear_4_6" x1="2.69809" y1="22.9874" x2="138.119" y2="22.9874" gradientUnits="userSpaceOnUse">
<stop offset="2.77045e-07" stop-color="#C24599"/>
<stop offset="0.5279" stop-color="#EE2447"/>
<stop offset="1" stop-color="#2482C5"/>
</linearGradient>
<linearGradient id="paint17_linear_4_6" x1="2.69809" y1="22.9874" x2="138.119" y2="22.9874" gradientUnits="userSpaceOnUse">
<stop offset="2.77045e-07" stop-color="#C24599"/>
<stop offset="0.5279" stop-color="#EE2447"/>
<stop offset="1" stop-color="#2482C5"/>
</linearGradient>
<linearGradient id="paint18_linear_4_6" x1="2.69809" y1="22.9874" x2="138.119" y2="22.9874" gradientUnits="userSpaceOnUse">
<stop offset="2.77045e-07" stop-color="#C24599"/>
<stop offset="0.5279" stop-color="#EE2447"/>
<stop offset="1" stop-color="#2482C5"/>
</linearGradient>
<linearGradient id="paint19_linear_4_6" x1="2.69809" y1="22.9874" x2="138.119" y2="22.9874" gradientUnits="userSpaceOnUse">
<stop offset="2.77045e-07" stop-color="#C24599"/>
<stop offset="0.5279" stop-color="#EE2447"/>
<stop offset="1" stop-color="#2482C5"/>
</linearGradient>
<linearGradient id="paint20_linear_4_6" x1="2.69809" y1="22.9874" x2="138.119" y2="22.9874" gradientUnits="userSpaceOnUse">
<stop offset="2.77045e-07" stop-color="#C24599"/>
<stop offset="0.5279" stop-color="#EE2447"/>
<stop offset="1" stop-color="#2482C5"/>
</linearGradient>
<linearGradient id="paint21_linear_4_6" x1="2.69809" y1="22.9874" x2="138.119" y2="22.9874" gradientUnits="userSpaceOnUse">
<stop offset="2.77045e-07" stop-color="#C24599"/>
<stop offset="0.5279" stop-color="#EE2447"/>
<stop offset="1" stop-color="#2482C5"/>
</linearGradient>
<linearGradient id="paint22_linear_4_6" x1="2.69809" y1="22.9874" x2="138.119" y2="22.9874" gradientUnits="userSpaceOnUse">
<stop offset="2.77045e-07" stop-color="#C24599"/>
<stop offset="0.5279" stop-color="#EE2447"/>
<stop offset="1" stop-color="#2482C5"/>
</linearGradient>
<linearGradient id="paint23_linear_4_6" x1="2.69809" y1="22.9874" x2="138.119" y2="22.9874" gradientUnits="userSpaceOnUse">
<stop offset="2.77045e-07" stop-color="#C24599"/>
<stop offset="0.5279" stop-color="#EE2447"/>
<stop offset="1" stop-color="#2482C5"/>
</linearGradient>
<linearGradient id="paint24_linear_4_6" x1="2.69809" y1="22.9874" x2="138.119" y2="22.9874" gradientUnits="userSpaceOnUse">
<stop offset="2.77045e-07" stop-color="#C24599"/>
<stop offset="0.5279" stop-color="#EE2447"/>
<stop offset="1" stop-color="#2482C5"/>
</linearGradient>
</defs>
</svg>
