<svg width="52" height="52" viewBox="0 0 52 52" fill="none" xmlns="http://www.w3.org/2000/svg">
<g id="phone" clip-path="url(#clip0_9_211)">
<g id="Group">
<path id="Vector" d="M44.382 7.61244C34.2269 -2.53963 17.7645 -2.53719 7.61244 7.61803C-2.53963 17.7733 -2.53719 34.2355 7.61803 44.3876C17.7732 54.5396 34.2355 54.5372 44.3876 44.382C46.8015 41.9673 48.7162 39.1008 50.0224 35.9461C51.3285 32.7915 52.0005 29.4104 52 25.9961C51.9995 22.5817 51.3265 19.2009 50.0194 16.0466C48.7123 12.8923 46.7967 10.0264 44.382 7.61244ZM39.3761 36.2177L39.3726 36.2211V36.2125L38.0553 37.5211C37.2175 38.3694 36.1753 38.9873 35.0291 39.3153C33.8829 39.6432 32.6715 39.67 31.5119 39.3931C29.1359 38.7572 26.8771 37.7448 24.8213 36.3945C22.9112 35.1739 21.1413 33.7468 19.5433 32.1391C18.073 30.6796 16.752 29.077 15.5999 27.3552C14.3397 25.5025 13.3423 23.4842 12.6359 21.3578C12.2389 20.133 12.1908 18.8219 12.4969 17.5713C12.8031 16.3207 13.4514 15.1801 14.3693 14.2772L15.9119 12.7345C16.3408 12.3037 17.0377 12.3022 17.4685 12.7311L17.4719 12.7345L22.3425 17.6052C22.7734 18.0341 22.7749 18.731 22.346 19.1617L22.3425 19.1652L19.4825 22.0252C18.6619 22.8368 18.5587 24.1267 19.2399 25.0585C20.2744 26.4781 21.419 27.8141 22.6633 29.0539C24.0505 30.4471 25.5586 31.7145 27.1699 32.8412C28.1009 33.4906 29.3631 33.3812 30.1685 32.5812L32.9332 29.7733C33.3621 29.3424 34.059 29.3409 34.4897 29.7698L34.4932 29.7733L39.3725 34.6612C39.8034 35.09 39.805 35.7869 39.3761 36.2177Z" fill="url(#paint0_linear_9_211)"/>
</g>
</g>
<defs>
<linearGradient id="paint0_linear_9_211" x1="26" y1="0" x2="26" y2="52" gradientUnits="userSpaceOnUse">
<stop stop-color="#C24599"/>
<stop offset="1" stop-color="#2482C5"/>
</linearGradient>
<clipPath id="clip0_9_211">
<rect width="52" height="52" fill="white"/>
</clipPath>
</defs>
</svg>
